<?xml version="1.0" encoding="UTF-8" standalone="no"?>
<svg
   xmlns:dc="http://purl.org/dc/elements/1.1/"
   xmlns:cc="http://creativecommons.org/ns#"
   xmlns:rdf="http://www.w3.org/1999/02/22-rdf-syntax-ns#"
   xmlns:svg="http://www.w3.org/2000/svg"
   xmlns="http://www.w3.org/2000/svg"
   xmlns:xlink="http://www.w3.org/1999/xlink"
   xmlns:sodipodi="http://sodipodi.sourceforge.net/DTD/sodipodi-0.dtd"
   xmlns:inkscape="http://www.inkscape.org/namespaces/inkscape"
   viewBox="0 0 48 48"
   version="1.1"
   id="svg72458"
   sodipodi:docname="bug2.svg"
   inkscape:version="0.92.1 r15371">
  <metadata
     id="metadata72462">
    <rdf:RDF>
      <cc:Work
         rdf:about="">
        <dc:format>image/svg+xml</dc:format>
        <dc:type
           rdf:resource="http://purl.org/dc/dcmitype/StillImage" />
        <dc:title></dc:title>
      </cc:Work>
    </rdf:RDF>
  </metadata>
  <sodipodi:namedview
     pagecolor="#ffffff"
     bordercolor="#666666"
     borderopacity="1"
     objecttolerance="10"
     gridtolerance="10"
     guidetolerance="10"
     inkscape:pageopacity="0"
     inkscape:pageshadow="2"
     inkscape:window-width="3840"
     inkscape:window-height="2091"
     id="namedview72460"
     showgrid="false"
     inkscape:zoom="19.666667"
     inkscape:cx="3.2561353"
     inkscape:cy="42.853775"
     inkscape:window-x="0"
     inkscape:window-y="33"
     inkscape:window-maximized="1"
     inkscape:current-layer="svg72458" />
  <defs
     id="defs72452">
    <linearGradient
       id="0"
       x1="24.05"
       y1="48.44"
       x2="23.988"
       y2="-.311"
       gradientUnits="userSpaceOnUse">
      <stop
         stop-color="#c52828"
         id="stop72447"
         style="stop-color:#323232;stop-opacity:1" />
      <stop
         offset="1"
         stop-color="#ff5454"
         id="stop72449"
         style="stop-color:#646464;stop-opacity:1" />
    </linearGradient>
    <linearGradient
       inkscape:collect="always"
       xlink:href="#0"
       id="linearGradient4541"
       gradientUnits="userSpaceOnUse"
       x1="24.05"
       y1="48.44"
       x2="23.988"
       y2="-.311" />
  </defs>
  <path
     d="m24 0c-13.255 0-24 10.745-24 24 0 13.255 10.745 24 24 24 13.255 0 24-10.745 24-24 0-13.255-10.745-24-24-24"
     id="path72454"
     fill="url(#0)"
     style="fill-opacity:1;fill:url(#linearGradient4541)" />
  <path
     d="M 29.904248,41.638861 29.546121,35.185325 C 29.51889,34.691877 29.215383,34.256204 28.762244,34.059716 L 28.365266,33.88754 c 0.798648,-0.534146 1.564446,-1.158844 2.279853,-1.874246 1.368881,-1.368871 2.408639,-2.922073 3.108121,-4.537669 l 1.317104,0.571767 0.313583,5.649508 c 0.01855,0.333811 0.160945,0.63162 0.380129,0.850803 0.25365,0.253649 0.60993,0.402206 0.996213,0.380743 0.7201,-0.03985 1.271637,-0.656164 1.231633,-1.376258 l -0.35782,-6.453844 c -0.02723,-0.493449 -0.330584,-0.928968 -0.783953,-1.125685 l -2.294471,-0.995978 c 0.400208,-1.884399 0.34651,-3.769416 -0.176716,-5.474023 l 2.090672,-0.829724 1.671693,3.528847 c 0.308735,0.651854 1.087303,0.92989 1.739471,0.621004 0.651781,-0.308656 0.92982,-1.087374 0.621007,-1.739305 l -2.196379,-4.635298 c -0.294657,-0.622236 -1.021988,-0.908734 -1.662153,-0.655086 l -3.383159,1.34256 C 32.948128,16.668287 32.588926,16.227692 32.181176,15.819946 31.773428,15.4122 31.332601,15.053072 30.86538,14.740958 l 1.342493,-3.383212 C 32.461984,10.717739 32.175099,9.9903358 31.552782,9.6956055 L 26.91822,7.5000108 c -0.651781,-0.3088106 -1.430736,-0.030543 -1.739471,0.6211575 -0.308734,0.6517012 -0.03062,1.4308024 0.621163,1.7394589 l 3.52841,1.6712188 -0.829807,2.090889 c -1.704466,-0.523068 -3.589726,-0.576999 -5.473602,-0.17687 L 22.029084,11.151719 C 21.832365,10.698658 21.396612,10.394774 20.903468,10.367847 L 14.44881,10.009262 c -0.720178,-0.040082 -1.336571,0.511375 -1.376345,1.231546 -0.02146,0.386281 0.127171,0.742635 0.380745,0.996207 0.21926,0.21926 0.516994,0.361586 0.850809,0.380127 l 5.649933,0.313811 0.57154,1.316864 c -1.615991,0.699706 -3.168822,1.739074 -4.537779,3.108022 -0.715406,0.715401 -1.340109,1.481194 -1.874105,2.279682 L 13.941661,19.239085 C 13.744787,18.785871 13.309036,18.482294 12.816045,18.455214 L 6.3616163,18.096397 c -0.7200993,-0.04 -1.3365688,0.511375 -1.3764205,1.231469 -0.021464,0.386282 0.1271713,0.742636 0.3808216,0.996284 0.2192611,0.21926 0.5169945,0.361587 0.8506561,0.38028 l 5.6497785,0.313966 0.710483,1.636751 c -1.434659,3.950363 -0.864735,8.156452 1.873412,10.89458 2.738915,2.738897 6.944111,3.308047 10.894656,1.873398 l 1.637148,0.710863 0.313891,5.649354 c 0.01846,0.334043 0.160867,0.631545 0.380129,0.850804 0.25365,0.253649 0.610007,0.402284 0.996215,0.380742 0.720175,-0.03993 1.271636,-0.656317 1.231553,-1.376488 M 21.571572,17.096459 c 1.116462,-1.116455 2.92834,-1.116455 4.046101,0.0013 1.117374,1.117364 1.117244,2.9291 7.81e-4,4.045555 -1.11672,1.116712 -2.927949,1.116325 -4.045323,-0.001 -1.117762,-1.117754 -1.118282,-2.929102 -0.0015,-4.045815 m -5.148334,14.068138 c -1.047494,-1.047487 -1.046396,-2.746011 -2.42e-4,-3.792157 1.046152,-1.046146 2.74347,-1.046024 3.790962,0.0014 1.046278,1.046269 1.046765,2.743941 6.1e-4,3.790085 -1.046153,1.046147 -2.745056,1.046879 -3.79133,6.11e-4 m 9.403113,-5.950474 c 0.942453,-0.942448 2.472197,-0.941269 3.415239,0.0018 0.943239,0.943232 0.943239,2.471987 8.59e-4,3.414335 -0.943926,0.94392 -2.472493,0.943722 -3.415732,4.89e-4 -0.943042,-0.943034 -0.944319,-2.47267 -3.92e-4,-3.416589"
     id="path72456"
     inkscape:connector-curvature="0"
     style="fill:#ffffff;fill-opacity:0.85199998;stroke-width:0.10880028"
     sodipodi:nodetypes="ccccscccsccccccccccccccccccccccccccccsccscccccccccsccccccccssccscccccssc" />
</svg>
